<?xml version="1.0" standalone="no"?>
<!DOCTYPE svg PUBLIC "-//W3C//DTD SVG 20010904//EN"
 "http://www.w3.org/TR/2001/REC-SVG-20010904/DTD/svg10.dtd">
<svg version="1.0" xmlns="http://www.w3.org/2000/svg"
 width="300.000000pt" height="300.000000pt" viewBox="0 0 300.000000 300.000000"
 preserveAspectRatio="xMidYMid meet">
<metadata>
Created by potrace 1.10, written by Peter Selinger 2001-2011
</metadata>
<g transform="translate(0.000000,300.000000) scale(0.050000,-0.050000)"
fill="#000000" stroke="none">
<path d="M1560 4983 c-31 -31 -68 -94 -81 -139 -22 -72 -31 -82 -71 -72 -102
26 -168 -45 -168 -182 0 -65 -4 -68 -55 -58 -118 23 -182 -115 -143 -307 58
-292 305 -297 333 -7 9 90 14 99 46 81 160 -85 319 66 319 304 0 62 6 72 38
63 53 -14 102 66 102 167 0 180 -197 273 -320 150z m234 -12 c31 -28 47 -50
35 -50 -12 -1 -17 -36 -12 -86 7 -67 12 -76 24 -45 16 39 16 39 18 -2 2 -63
-70 -121 -109 -88 -26 22 -30 14 -30 -59 0 -274 -169 -434 -314 -298 l-46 44
0 -104 c0 -247 -159 -359 -252 -179 -111 211 -44 466 105 398 45 -20 47 -18
47 63 1 152 90 242 172 174 36 -30 36 -30 67 86 51 185 178 248 295 146z"/>
<path d="M1666 4590 c-1 -38 6 -70 16 -70 10 0 18 32 18 70 0 39 -7 70 -16 70
-9 0 -17 -31 -18 -70z"/>
<path d="M1113 4385 c-20 -80 -1 -174 42 -209 28 -22 30 -22 14 4 -10 17 -24
84 -29 150 -10 110 -12 115 -27 55z"/>
<path d="M2475 4620 c-146 -79 -241 -351 -306 -871 -17 -134 47 -106 -619
-279 -485 -126 -615 -169 -519 -171 27 -1 17 -13 -36 -40 -87 -46 -90 -56 -34
-115 49 -53 11 -55 293 15 212 53 677 148 806 164 39 6 49 -1 44 -29 -11 -62
35 -94 133 -95 117 0 90 -19 -166 -111 -100 -36 -179 -75 -176 -87 3 -11 -7
-21 -22 -21 -68 0 -104 -78 -57 -125 44 -43 44 -43 139 -7 52 20 204 75 338
123 134 48 375 141 535 207 l292 120 0 -94 c-1 -143 -36 -359 -82 -504 -68
-216 -281 -747 -316 -788 -39 -46 -737 -393 -1056 -526 -127 -53 -235 -107
-240 -120 -21 -53 280 -342 424 -408 156 -72 299 -34 153 40 -84 43 -255 239
-229 263 9 8 155 57 325 109 855 260 1114 467 1392 1110 75 173 66 169 190 86
127 -86 709 -370 835 -407 110 -33 114 -42 142 -319 58 -551 86 -771 103 -788
24 -25 517 -19 617 7 108 30 104 56 -13 71 -154 20 -313 53 -348 72 -29 15
-33 71 -35 453 -5 793 17 757 -697 1124 -373 191 -415 218 -428 272 -8 32 -34
145 -57 249 -81 356 -116 406 -570 829 -128 119 -155 154 -135 174 195 195
-352 563 -620 417z m350 -33 c173 -68 234 -134 152 -164 -29 -11 -36 -21 -21
-31 13 -7 43 -4 66 9 99 53 109 -116 13 -218 -64 -68 -64 -68 -14 -56 43 10
69 -6 157 -95 l105 -106 -77 -13 c-167 -28 -223 -18 -255 46 -46 87 -159 168
-213 150 -37 -12 -42 -7 -33 29 6 23 3 42 -7 42 -10 0 -18 -8 -18 -17 0 -10
-21 -13 -48 -8 -26 5 -53 -1 -61 -13 -7 -12 0 -22 18 -22 34 0 42 -31 12 -49
-10 -7 -28 5 -39 26 -24 43 26 103 85 103 18 0 33 10 33 21 0 12 7 17 15 12
17 -11 22 92 5 107 -42 38 -72 115 -59 150 8 22 11 60 5 85 -13 57 52 61 179
12z m214 -780 c120 -100 190 -354 106 -382 -39 -13 -80 93 -44 115 71 45 -20
42 -226 -6 -534 -124 -669 -149 -731 -140 -43 7 -77 0 -100 -20 -19 -16 -173
-58 -344 -92 -170 -33 -361 -73 -424 -89 l-114 -27 -20 56 c-13 39 -13 61 1
70 15 9 14 18 -2 27 -12 8 183 67 433 131 251 64 519 136 596 161 77 25 248
79 380 119 132 41 276 86 320 100 107 36 99 37 169 -23z m57 -470 c-6 -18
-259 -137 -292 -137 -6 0 28 26 77 57 49 32 111 81 138 111 48 52 98 33 77
-31z m-559 -204 c102 3 87 -21 -38 -60 -49 -16 -175 -60 -281 -98 -185 -69
-192 -70 -215 -32 -48 77 234 228 377 201 39 -7 109 -12 157 -11z"/>
<path d="M2791 4478 c11 -36 7 -40 -29 -29 -50 16 -57 -19 -8 -38 42 -16 95
36 79 77 -18 49 -58 39 -42 -10z"/>
<path d="M2793 4358 c-50 -71 3 -134 63 -74 34 34 30 116 -5 116 -16 0 -42
-19 -58 -42z"/>
<path d="M4174 4252 c-7 -131 -18 -242 -24 -248 -9 -9 -235 26 -460 70 -54 11
-57 9 -32 -21 17 -20 43 -29 65 -22 31 10 182 -13 410 -62 42 -9 44 -1 58 195
l15 204 52 -176 c29 -96 61 -176 72 -178 20 -2 254 263 292 331 42 75 -5 28
-134 -135 -160 -202 -156 -201 -198 -55 -17 63 -48 165 -68 225 l-35 110 -13
-238z"/>
<path d="M4660 4430 c-14 -17 -21 -36 -15 -42 9 -9 -84 -310 -134 -430 -8 -19
-2 -38 13 -44 14 -6 116 -52 226 -102 l200 -92 -254 0 -255 0 -5 -262 -6 -263
-78 218 c-98 276 -77 263 -282 168 -217 -100 -217 -100 -71 74 l119 142 -192
112 c-106 61 -196 108 -201 103 -7 -7 181 -123 311 -191 53 -27 61 -12 -106
-220 -55 -68 -103 -133 -106 -142 -4 -10 86 26 200 80 113 53 212 91 220 84
16 -15 164 -409 183 -488 31 -127 44 -36 36 258 l-8 313 302 -10 c167 -5 303
-8 303 -5 0 2 -117 56 -260 119 -143 63 -260 127 -260 141 0 15 37 131 82 259
80 229 89 282 38 220z"/>
<path d="M4501 4105 c-47 -133 -48 -136 -27 -115 29 29 88 190 70 190 -9 0
-28 -34 -43 -75z"/>
<path d="M1388 2505 l-101 -215 -86 135 c-47 74 -93 130 -103 124 -10 -6 -13
1 -7 17 6 15 -2 39 -19 52 -33 28 -33 28 30 -208 21 -76 38 -145 38 -151 0 -7
-74 -28 -165 -48 -91 -19 -178 -40 -195 -45 -60 -20 47 -43 205 -45 85 0 155
-6 155 -12 0 -6 -31 -87 -70 -180 -81 -196 -92 -267 -29 -191 22 27 89 101
149 165 l108 117 94 -199 c126 -269 133 -258 100 152 l-7 84 153 69 c83 38
188 81 232 96 78 27 73 28 -157 34 l-237 5 14 230 c8 126 11 229 7 229 -5 0
-54 -97 -109 -215z m78 -80 l-11 -195 187 6 188 6 -181 -88 -182 -88 6 -188 6
-188 -81 170 c-45 94 -86 175 -92 180 -5 6 -71 -57 -147 -140 l-137 -150 76
190 75 190 -172 10 -171 10 165 40 c91 22 165 47 165 57 0 9 -14 71 -31 137
-41 159 -28 163 60 18 100 -164 96 -165 192 38 105 220 100 221 85 -15z"/>
</g>
</svg>
